# xmcd
#
# Track frame offsets:
#	150
#	21260
#	40531
#	54240
#	77437
#	108226
#	125425
#	149054
#	169940
#	190559
#	208055
#	231594
#	250287
#	273163
#	295064
#	310064
#	329640
#
# Disc length: 4725 seconds
#
# Revision: 1
# Processed by: cddbd v1.5.1PL0 Copyright (c) Steve Scherf et al.
# Submitted via: audiograbber 1.82.02
#
DISCID=f2127311
DTITLE=Snowy White - Bird of Paradise, An Anthology [CD1]
DYEAR=2003
DGENRE=Blues
TTITLE0=Bird of Paradise
TTITLE1=Good Question
TTITLE2=Open Carefully
TTITLE3=At the Crossroads
TTITLE4=Snow Blues
TTITLE5=Rush Hour
TTITLE6=Someone else is gonna love me
TTITLE7=Only Women
TTITLE8=Birthday Blues
TTITLE9=Highway to the Sun
TTITLE10=Love, Pain and Sorrow
TTITLE11=All my Money
TTITLE12=Judgement Day
TTITLE13=Blues on me
TTITLE14=Out of Order
TTITLE15=I can't help myself
TTITLE16=Land of Plenty
EXTD=
EXTT0=
EXTT1=
EXTT2=
EXTT3=
EXTT4=
EXTT5=
EXTT6=
EXTT7=
EXTT8=
EXTT9=
EXTT10=
EXTT11=
EXTT12=
EXTT13=
EXTT14=
EXTT15=
EXTT16=
PLAYORDER=
